<?xml version="1.0" encoding="utf-8"?>
<!-- Generator: Adobe Illustrator 19.2.1, SVG Export Plug-In . SVG Version: 6.00 Build 0)  -->
<svg version="1.1" id="acount_icon" xmlns="http://www.w3.org/2000/svg" xmlns:xlink="http://www.w3.org/1999/xlink" x="0px"
	 y="0px" viewBox="0 0 12 18" style="enable-background:new 0 0 12 18;" xml:space="preserve">
<style type="text/css">
	.st0{fill:#00234F;}
</style>
<g>
	<path class="st0" d="M9.6,8.8C8.6,9.6,7.3,10,6,10c-1.3,0-2.6-0.4-3.6-1.2C0.9,9.9,0,11.7,0,13.7V18h12v-4.3
		C12,11.7,11.1,9.9,9.6,8.8z"/>
	<path class="st0" d="M4.7,7.8C5.1,7.9,5.5,8,6,8c0.5,0,0.9-0.1,1.3-0.2C8.9,7.2,10,5.7,10,4c0-2.2-1.8-4-4-4C3.8,0,2,1.8,2,4
		C2,5.7,3.1,7.2,4.7,7.8z"/>
</g>
</svg>
