<?xml version="1.0" encoding="utf-8"?>
<!-- Generator: Adobe Illustrator 19.2.1, SVG Export Plug-In . SVG Version: 6.00 Build 0)  -->
<svg version="1.1" id="Layer_1" xmlns="http://www.w3.org/2000/svg" xmlns:xlink="http://www.w3.org/1999/xlink" x="0px" y="0px"
	 viewBox="0 0 66.4 59" style="enable-background:new 0 0 66.4 59;" xml:space="preserve">
<style type="text/css">
	.st0{fill:#15264E;}
</style>
<title>iconunselectedlike</title>
<path class="st0" d="M34.3,59c-0.7,0-1.3-0.2-1.9-0.6C29.1,56.3,0,36.8,0,19.8v-1.1C0.1,8.3,8.5-0.1,18.9,0c5.5,0,10.7,2.4,14.3,6.5
	C36.8,2.4,42,0,47.5,0c10.4-0.1,18.8,8.3,18.9,18.6v1.1c0,7.5-5.2,16.3-15.4,26.3c-4.6,4.5-9.5,8.6-14.7,12.4
	C35.8,58.8,35,59,34.3,59z M18.9,7C12.4,6.9,7.1,12.1,7,18.6v1.1c0,5.2,5,12.8,14.2,21.1c4.1,3.7,8.5,7.2,13.1,10.4
	c8.5-6.4,25.2-21,25.2-31.5v-1.1C59.3,12.1,54,6.9,47.5,7c-4.8,0-9.2,2.9-11,7.4c-0.7,1.8-2.8,2.7-4.5,2c-0.9-0.4-1.6-1.1-2-2
	C28.1,9.9,23.7,7,18.9,7z"/>
</svg>
