<?xml version="1.0" encoding="utf-8"?>
<!-- Generator: Adobe Illustrator 19.2.1, SVG Export Plug-In . SVG Version: 6.00 Build 0)  -->
<svg version="1.1" id="Layer_1" xmlns="http://www.w3.org/2000/svg" xmlns:xlink="http://www.w3.org/1999/xlink" x="0px" y="0px"
	 viewBox="0 0 53 53" style="enable-background:new 0 0 53 53;" xml:space="preserve" overflow="visible">
<style type="text/css">
	.st0{fill:#16254E;}
</style>
<title>iconsearch</title>
<path class="st0" d="M51.9,46l-14-14c6.3-9.5,3.6-22.3-5.9-28.6S9.7-0.2,3.4,9.3s-3.6,22.3,5.9,28.6c6.9,4.5,15.8,4.5,22.7,0l14,14
	l0,0c1.5,1.5,4,1.5,5.5,0l0.4-0.4C53.4,50,53.4,47.5,51.9,46z M20.6,33.3c-7,0-12.6-5.7-12.6-12.7c0-7,5.7-12.6,12.7-12.6
	c7,0,12.6,5.7,12.6,12.7c0,3.3-1.3,6.5-3.7,8.9C27.2,32,24,33.3,20.6,33.3z"/>
</svg>
