<svg width="12" height="187" viewBox="0 0 12 187" xmlns="http://www.w3.org/2000/svg" xmlns:xlink="http://www.w3.org/1999/xlink"><svg id="account" viewBox="-1.2 -1.2 14.4 20.4" width="12" height="17"><path class="ast0" d="M9.6 8.8C8.6 9.6 7.3 10 6 10c-1.3 0-2.6-.4-3.6-1.2C.9 9.9 0 11.7 0 13.7V18h12v-4.3c0-2-.9-3.8-2.4-4.9zM4.7 7.8c.4.1.8.2 1.3.2s.9-.1 1.3-.2C8.9 7.2 10 5.7 10 4c0-2.2-1.8-4-4-4S2 1.8 2 4c0 1.7 1.1 3.2 2.7 3.8z"/></svg><svg id="add-to-playlist" viewBox="-1.9 -1.9 22.8 17.8" width="12" height="9.37" y="17"><path id="bRectangle_1_copy_2" class="bst0" d="M0 4h11v2H0V4zm0-4h14v2H0V0zm0 8h7v2H0V8zm13-4h2v10h-2V4zM9 8h4v2H9V8zm6 0h4v2h-4V8z"/></svg><svg id="cancel" width="12" height="12.48" viewBox="-2.1 -2.1 25.2 26.2" y="27"><defs/><path id="cRectangle_26_copy_2" data-name="Rectangle 26 copy 2" class="ccls-1" d="M20.753 19.838l-1.414 1.415L.246 2.161 1.661.747z"/><path id="cRectangle_26_copy_2-2" data-name="Rectangle 26 copy 2" class="ccls-1" d="M.247 19.839L19.34.746l1.414 1.415L1.662 21.253z"/></svg><svg id="caret-down" viewBox="-1.3 -1.3 15.6 13.6" width="12" height="10.46" y="40"><path id="dPolygon_4" class="dst0" d="M6.5 11L0 0h13L6.5 11z"/></svg><svg id="caret-left" viewBox="-1.1 -1.1 13.2 15.2" width="12" height="13.82" y="51"><path id="ePolygon_4" class="est0" d="M0 6.5L11 0v13L0 6.5z"/></svg><svg width="12" height="12" viewBox="-1.3 -1.3 15.6 15.6" id="caret-right" y="65"><defs/><path id="fPolygon_4" data-name="Polygon 4" class="fcls-1" d="M12.016 6.508L1 13.011V.005z"/></svg><svg width="12" height="4.41" viewBox="-2.9 -2.9 34.8 12.8" overflow="visible" id="ellipsis" y="77"><circle cx="25.6" cy="3.5" r="3.3"/><circle cx="14.5" cy="3.5" r="3.3"/><circle cx="3.4" cy="3.5" r="3.3"/></svg><svg id="heart" data-name="Layer 1" viewBox="-5.94 -5.94 71.32 63.89" overflow="visible" width="12" height="10.75" y="82"><defs/><title>iconlikeselected</title><path class="hcls-1" d="M44 0a15.39 15.39 0 0 0-14.3 9.56A15.39 15.39 0 0 0 15.41 0 15.26 15.26 0 0 0 0 15.14v1.11C0 31.85 30.83 52 30.83 52s28.6-20.15 28.6-35.75v-1.11A15.26 15.26 0 0 0 44 0z"/></svg><svg id="heart-outline" viewBox="-6.64 -6.64 79.68 72.28" width="12" height="10.89" y="93"><title>iconunselectedlike</title><path class="ist0" d="M34.3 59c-.7 0-1.3-.2-1.9-.6C29.1 56.3 0 36.8 0 19.8v-1.1C.1 8.3 8.5-.1 18.9 0c5.5 0 10.7 2.4 14.3 6.5C36.8 2.4 42 0 47.5 0c10.4-.1 18.8 8.3 18.9 18.6v1.1C66.4 27.2 61.2 36 51 46c-4.6 4.5-9.5 8.6-14.7 12.4-.5.4-1.3.6-2 .6zM18.9 7C12.4 6.9 7.1 12.1 7 18.6v1.1c0 5.2 5 12.8 14.2 21.1 4.1 3.7 8.5 7.2 13.1 10.4 8.5-6.4 25.2-21 25.2-31.5v-1.1C59.3 12.1 54 6.9 47.5 7c-4.8 0-9.2 2.9-11 7.4-.7 1.8-2.8 2.7-4.5 2-.9-.4-1.6-1.1-2-2C28.1 9.9 23.7 7 18.9 7z"/></svg><svg width="12" height="14.19" viewBox="-3.2 -3.2 38.4 45.4" id="play" y="104"><defs/><path id="jPolygon_2" data-name="Polygon 2" class="jcls-1" d="M.012 39.012V0l32 19.507z"/></svg><svg id="player-back" viewBox="-1.6 -1.6 19.2 21.2" width="12" height="13.25" y="119"><path id="kPolygon_3_copy" class="kst0" d="M3 9l13-9v18L3 9z"/><path id="kRectangle_23_copy" class="kst0" d="M0 0h3v18H0z"/></svg><svg id="player-forward" viewBox="-1.6 -1.6 19.2 21.2" width="12" height="13.25" y="133"><path id="lPolygon_3_copy" class="lst0" d="M13 9L0 18V0l13 9z"/><path id="lRectangle_23_copy" class="lst0" d="M13 0h3v18h-3z"/></svg><svg width="12" height="19.14" viewBox="-1.4 -1.4 16.8 26.8" id="player-pause" y="147"><defs/><path id="mRectangle_23_copy_2" data-name="Rectangle 23 copy 2" class="mcls-1" d="M0 0h3v23.969H0z"/><path id="mRectangle_23_copy_3" data-name="Rectangle 23 copy 3" class="mcls-1" d="M11 0h3v23.969h-3z"/></svg><svg id="search" viewBox="-5.3 -5.3 63.6 63.6" overflow="visible" width="12" height="12" y="167"><title>iconsearch</title><path class="nst0" d="M51.9 46l-14-14c6.3-9.5 3.6-22.3-5.9-28.6S9.7-.2 3.4 9.3-.2 31.6 9.3 37.9c6.9 4.5 15.8 4.5 22.7 0l14 14c1.5 1.5 4 1.5 5.5 0l.4-.4c1.5-1.5 1.5-4 0-5.5zM20.6 33.3c-7 0-12.6-5.7-12.6-12.7C8 13.6 13.7 8 20.7 8c7 0 12.6 5.7 12.6 12.7 0 3.3-1.3 6.5-3.7 8.9-2.4 2.4-5.6 3.7-9 3.7z"/></svg><svg data-name="icon: share out" width="12" height="8" viewBox="-2 -2 24 16" id="share" y="179"><path class="ocls-1" d="M4 5h9v2H4z"/><path data-name="Rectangle 59 copy" class="ocls-1" d="M9 0h2v4H9z"/><path data-name="Rectangle 59 copy 2" class="ocls-1" d="M9 8h2v4H9z"/><path data-name="Rectangle 59 copy 3" class="ocls-1" d="M2 10h7v2H2z"/><path data-name="Rectangle 59 copy 4" class="ocls-1" d="M2 0h7v2H2z"/><path data-name="Rectangle 59 copy 5" class="ocls-1" d="M0 0h2v12H0z"/><path data-name="Polygon 1" class="ocls-2" d="M12.011 9.988V2.014l8 3.987z"/></svg></svg>