<svg xmlns="http://www.w3.org/2000/svg" xmlns:xlink="http://www.w3.org/1999/xlink"><symbol viewBox="0 0 512 512" id="icon-facebook"><path d="M211.9 197.4h-36.7v59.9h36.7v175.8h70.5V256.5h49.2l5.2-59.1h-54.4v-33.7c0-13.9 2.8-19.5 16.3-19.5h38.2V82.9h-48.8c-52.5 0-76.1 23.1-76.1 67.3-.1 38.6-.1 47.2-.1 47.2z"/></symbol><symbol viewBox="0 0 512 512" id="icon-google-plus"><path d="M179.7 237.6v46.6h77c-3.1 20-23.3 58.7-77 58.7-46.3 0-84.1-38.5-84.1-85.9 0-47.4 37.8-85.9 84.1-85.9 26.4 0 44 11.3 54.1 21l36.8-35.5C247 134.4 216.4 121 179.7 121 104.7 121 44 181.8 44 257s60.7 136 135.7 136C258 393 310 337.8 310 260.1c0-8.9-1-15.7-2.1-22.5H179.7zm288.3-.9h-38.7V198h-38.6v38.7H352v38.6h38.7V314h38.6v-38.7H468"/></symbol><symbol viewBox="0 0 512 512" id="icon-instagram"><path d="M256 109.3c47.8 0 53.4.2 72.3 1 17.4.8 26.9 3.7 33.2 6.2 8.4 3.2 14.3 7.1 20.6 13.4 6.3 6.3 10.1 12.2 13.4 20.6 2.5 6.3 5.4 15.8 6.2 33.2.9 18.9 1 24.5 1 72.3s-.2 53.4-1 72.3c-.8 17.4-3.7 26.9-6.2 33.2-3.2 8.4-7.1 14.3-13.4 20.6-6.3 6.3-12.2 10.1-20.6 13.4-6.3 2.5-15.8 5.4-33.2 6.2-18.9.9-24.5 1-72.3 1s-53.4-.2-72.3-1c-17.4-.8-26.9-3.7-33.2-6.2-8.4-3.2-14.3-7.1-20.6-13.4-6.3-6.3-10.1-12.2-13.4-20.6-2.5-6.3-5.4-15.8-6.2-33.2-.9-18.9-1-24.5-1-72.3s.2-53.4 1-72.3c.8-17.4 3.7-26.9 6.2-33.2 3.2-8.4 7.1-14.3 13.4-20.6 6.3-6.3 12.2-10.1 20.6-13.4 6.3-2.5 15.8-5.4 33.2-6.2 18.9-.8 24.5-1 72.3-1m0-32.2c-48.6 0-54.7.2-73.8 1.1-19 .9-32.1 3.9-43.4 8.3-11.8 4.6-21.7 10.7-31.7 20.6C97.2 117 91 127 86.5 138.8c-4.4 11.4-7.4 24.4-8.3 43.4-.9 19.1-1.1 25.2-1.1 73.8 0 48.6.2 54.7 1.1 73.8.9 19 3.9 32.1 8.3 43.4 4.6 11.8 10.7 21.7 20.6 31.7 9.9 9.9 19.9 16.1 31.7 20.6 11.4 4.4 24.4 7.4 43.4 8.3 19.1.9 25.2 1.1 73.8 1.1s54.7-.2 73.8-1.1c19-.9 32.1-3.9 43.4-8.3 11.8-4.6 21.7-10.7 31.7-20.6 9.9-9.9 16.1-19.9 20.6-31.7 4.4-11.4 7.4-24.4 8.3-43.4.9-19.1 1.1-25.2 1.1-73.8s-.2-54.7-1.1-73.8c-.9-19-3.9-32.1-8.3-43.4-4.6-11.8-10.7-21.7-20.6-31.7C395 97.2 385 91 373.2 86.5c-11.4-4.4-24.4-7.4-43.4-8.3-19.1-.9-25.2-1.1-73.8-1.1z"/><path d="M256 164.1c-50.7 0-91.9 41.1-91.9 91.9s41.1 91.9 91.9 91.9 91.9-41.1 91.9-91.9-41.2-91.9-91.9-91.9zm0 151.5c-32.9 0-59.6-26.7-59.6-59.6s26.7-59.6 59.6-59.6 59.6 26.7 59.6 59.6-26.7 59.6-59.6 59.6z"/><circle cx="351.5" cy="160.5" r="21.5"/></symbol><symbol viewBox="0 0 512 512" id="icon-linkedin"><path d="M186.4 142.4c0 19-15.3 34.5-34.2 34.5-18.9 0-34.2-15.4-34.2-34.5 0-19 15.3-34.5 34.2-34.5 18.9 0 34.2 15.5 34.2 34.5zm-5 58.9h-57.8v186.8h57.8V201.3zm92.4 0h-55.4v186.8h55.4v-98c0-26.3 12.1-41.9 35.2-41.9 21.3 0 31.5 15 31.5 41.9v98H398V269.8c0-50-28.3-74.2-68-74.2-39.6 0-56.3 30.9-56.3 30.9v-25.2h.1z"/></symbol><symbol viewBox="0 0 512 512" id="icon-rss"><path d="M201.8 347.2c0 20.3-16.5 36.8-36.8 36.8-20.3 0-36.8-16.5-36.8-36.8s16.5-36.8 36.8-36.8c20.3 0 36.8 16.4 36.8 36.8zm-73.6-142.5v54.5c68.5.7 124 56.3 124.7 124.7h54.5c-.7-98.6-80.5-178.5-179.2-179.2zm0-38.1c57.9.3 112.3 22.9 153.2 63.9 41 41 63.7 95.5 63.9 153.5h54.5c-.3-149.9-121.7-271.4-271.6-271.9v54.5z"/></symbol><symbol viewBox="0 0 512 512" id="icon-twitter"><path d="M419.6 168.6c-11.7 5.2-24.2 8.7-37.4 10.2 13.4-8.1 23.8-20.8 28.6-36-12.6 7.5-26.5 12.9-41.3 15.8C357.6 146 340.7 138 322 138c-42 0-72.9 39.2-63.4 79.9-54.1-2.7-102.1-28.6-134.2-68-17 29.2-8.8 67.5 20.1 86.9-10.7-.3-20.7-3.3-29.5-8.1-.7 30.2 20.9 58.4 52.2 64.6-9.2 2.5-19.2 3.1-29.4 1.1 8.3 25.9 32.3 44.7 60.8 45.2-27.4 21.4-61.8 31-96.4 27 28.8 18.5 63 29.2 99.8 29.2 120.8 0 189.1-102.1 185-193.6 12.9-9.1 23.9-20.5 32.6-33.6z"/></symbol><symbol viewBox="0 0 512 512" id="icon-youtube"><path d="M422.6 193.6c-5.3-45.3-23.3-51.6-59-54-50.8-3.5-164.3-3.5-215.1 0-35.7 2.4-53.7 8.7-59 54-4 33.6-4 91.1 0 124.8 5.3 45.3 23.3 51.6 59 54 50.9 3.5 164.3 3.5 215.1 0 35.7-2.4 53.7-8.7 59-54 4-33.6 4-91.1 0-124.8zM222.2 303.4v-94.6l90.7 47.3-90.7 47.3z"/></symbol></svg>