<svg id="Layer_1" data-name="Layer 1" xmlns="http://www.w3.org/2000/svg" viewBox="0 0 66.43 60"><title>iconunselectedlike</title><path class="cls-1" d="M34.33,60a3.5,3.5,0,0,1-1.92-.57C29.1,57.27,0,37.76,0,20.75V19.64A18.8,18.8,0,0,1,18.91,1a19.13,19.13,0,0,1,14.3,6.49A19.13,19.13,0,0,1,47.51,1,18.8,18.8,0,0,1,66.43,19.64v1.11C66.43,28.2,61.26,37,51.07,47A133.62,133.62,0,0,1,36.34,59.37,3.5,3.5,0,0,1,34.33,60ZM18.91,8A11.79,11.79,0,0,0,7,19.64v1.11C7,26,12,33.51,21.2,41.83A138.71,138.71,0,0,0,34.26,52.22c8.5-6.39,25.16-21,25.16-31.46V19.64A11.79,11.79,0,0,0,47.51,8a11.94,11.94,0,0,0-11.05,7.36,3.5,3.5,0,0,1-6.5,0A11.94,11.94,0,0,0,18.91,8Z"/></svg>
